<?xml version="1.0" encoding="utf-8"?>
<!-- Generator: Adobe Illustrator 16.0.0, SVG Export Plug-In . SVG Version: 6.00 Build 0)  -->
<!DOCTYPE svg PUBLIC "-//W3C//DTD SVG 1.1//EN" "http://www.w3.org/Graphics/SVG/1.1/DTD/svg11.dtd">
<svg version="1.1" id="Layer_1" xmlns="http://www.w3.org/2000/svg" xmlns:xlink="http://www.w3.org/1999/xlink" x="0px" y="0px"
	 width="350px" height="100px" viewBox="0 0 350 100" enable-background="new 0 0 350 100" xml:space="preserve">
<rect x="2.057" y="1.418" fill="#FFFFFF" stroke="#000000" stroke-miterlimit="10" width="350" height="98.582"/>
<rect fill="#FFFFFF" stroke="#000000" stroke-miterlimit="10" width="352.057" height="100">

</rect>	
<g>
	<g>
		<polyline fill="none" stroke="#2B3990" stroke-miterlimit="10" points="347.942,85.49 347.942,91.49 341.942,91.49 		">
		</polyline>	
		
			<line fill="none" stroke="#2B3990" stroke-miterlimit="10" stroke-dasharray="12.2138,12.2138" x1="329.729" y1="91.49" x2="18.276" y2="91.49"/>
		<polyline fill="none" stroke="#2B3990" stroke-miterlimit="10" points="12.169,91.49 6.169,91.49 6.169,85.49 		"/>
		
			<line fill="none" stroke="#2B3990" stroke-miterlimit="10" stroke-dasharray="13.6285,13.6285" x1="6.169" y1="71.861" x2="6.169" y2="24.162"/>
		<polyline fill="none" stroke="#2B3990" stroke-miterlimit="10" points="6.169,17.348 6.169,11.348 12.169,11.348 		"/>
		
			<line fill="none" stroke="#2B3990" stroke-miterlimit="10" stroke-dasharray="12.2138,12.2138" x1="24.383" y1="11.348" x2="335.836" y2="11.348"/>
		<polyline fill="none" stroke="#2B3990" stroke-miterlimit="10" points="341.942,11.348 347.942,11.348 347.942,17.348 		"/>
		
			<line fill="none" stroke="#2B3990" stroke-miterlimit="10" stroke-dasharray="13.6285,13.6285" x1="347.942" y1="30.976" x2="347.942" y2="78.676"/>
	</g>
</g>
<text transform="matrix(1 0 0 1 9.1489 38.291)"><tspan x="0" y="0" font-family="'MyriadPro-Regular'" font-size="18" letter-spacing="32">			</tspan><tspan x="0" y="21.6" font-family="'MyriadPro-Regular'" font-size="18" letter-spacing="32">		</tspan><tspan x="72" y="21.6" font-family="'MyriadPro-Regular'" font-size="18">           Bibliothèque ENSA</tspan>
		<animateTransform attributeName="transform"
			 attributeType="XML"
			 type="translate"
			 from="100 50 50"
			 to="360 0 0 "
			 dur="10s"
			 repeatCount="indefinite"   />

</text>
</svg>
